<?xml version="1.0" encoding="UTF-8" standalone="no"?>
<!DOCTYPE svg PUBLIC "-//W3C//DTD SVG 1.1//EN"
 "http://www.w3.org/Graphics/SVG/1.1/DTD/svg11.dtd">
<!-- Generated by graphviz version 2.36.0 (20140111.2315)
 -->
<!-- Title: G Pages: 1 -->
<svg width="413pt" height="338pt"
 viewBox="0.00 0.00 413.00 338.00" xmlns="http://www.w3.org/2000/svg" xmlns:xlink="http://www.w3.org/1999/xlink">
<g id="graph0" class="graph" transform="scale(1 1) rotate(0) translate(4 334)">
<title>G</title>
<polygon fill="white" stroke="none" points="-4,4 -4,-334 409,-334 409,4 -4,4"/>
<!-- Q1 -->
<g id="node1" class="node"><title>Q1</title>
<polygon fill="none" stroke="black" points="275,-330 121,-330 121,-292 275,-292 275,-330"/>
<text text-anchor="middle" x="198" y="-314.8" font-family="Times,serif" font-size="14.00">Questionnaires distribués</text>
<text text-anchor="middle" x="198" y="-299.8" font-family="Times,serif" font-size="14.00"> N = 400</text>
</g>
<!-- Q2 -->
<g id="node2" class="node"><title>Q2</title>
<polygon fill="none" stroke="black" points="274.25,-256 121.75,-256 121.75,-218 274.25,-218 274.25,-256"/>
<text text-anchor="middle" x="198" y="-240.8" font-family="Times,serif" font-size="14.00">Questionnaires récupérés</text>
<text text-anchor="middle" x="198" y="-225.8" font-family="Times,serif" font-size="14.00"> N = 160</text>
</g>
<!-- Q1&#45;&gt;Q2 -->
<g id="edge1" class="edge"><title>Q1&#45;&gt;Q2</title>
<path fill="none" stroke="black" d="M198,-291.831C198,-284.131 198,-274.974 198,-266.417"/>
<polygon fill="black" stroke="black" points="201.5,-266.413 198,-256.413 194.5,-266.413 201.5,-266.413"/>
</g>
<!-- Q3 -->
<g id="node3" class="node"><title>Q3</title>
<polygon fill="none" stroke="black" points="187.25,-182 38.75,-182 38.75,-144 187.25,-144 187.25,-182"/>
<text text-anchor="middle" x="113" y="-166.8" font-family="Times,serif" font-size="14.00">Questionnaires patientes</text>
<text text-anchor="middle" x="113" y="-151.8" font-family="Times,serif" font-size="14.00"> N = 80</text>
</g>
<!-- Q2&#45;&gt;Q3 -->
<g id="edge2" class="edge"><title>Q2&#45;&gt;Q3</title>
<path fill="none" stroke="black" d="M176.551,-217.831C166.182,-209.048 153.577,-198.371 142.335,-188.849"/>
<polygon fill="black" stroke="black" points="144.335,-185.956 134.442,-182.163 139.81,-191.297 144.335,-185.956"/>
</g>
<!-- Q4 -->
<g id="node4" class="node"><title>Q4</title>
<polygon fill="none" stroke="black" points="360.25,-182 205.75,-182 205.75,-144 360.25,-144 360.25,-182"/>
<text text-anchor="middle" x="283" y="-166.8" font-family="Times,serif" font-size="14.00">Questionnaires prof.santé</text>
<text text-anchor="middle" x="283" y="-151.8" font-family="Times,serif" font-size="14.00"> N = 80</text>
</g>
<!-- Q2&#45;&gt;Q4 -->
<g id="edge3" class="edge"><title>Q2&#45;&gt;Q4</title>
<path fill="none" stroke="black" d="M219.449,-217.831C229.818,-209.048 242.423,-198.371 253.665,-188.849"/>
<polygon fill="black" stroke="black" points="256.19,-191.297 261.558,-182.163 251.665,-185.956 256.19,-191.297"/>
</g>
<!-- Q5 -->
<g id="node5" class="node"><title>Q5</title>
<polygon fill="none" stroke="black" points="176.25,-108 49.75,-108 49.75,-72 176.25,-72 176.25,-108"/>
<text text-anchor="middle" x="113" y="-86.3" font-family="Times,serif" font-size="14.00">Exploitables N = 79</text>
</g>
<!-- Q3&#45;&gt;Q5 -->
<g id="edge4" class="edge"><title>Q3&#45;&gt;Q5</title>
<path fill="none" stroke="black" d="M113,-143.716C113,-135.973 113,-126.789 113,-118.274"/>
<polygon fill="black" stroke="black" points="116.5,-118.003 113,-108.003 109.5,-118.003 116.5,-118.003"/>
</g>
<!-- Q6 -->
<g id="node6" class="node"><title>Q6</title>
<polygon fill="none" stroke="black" points="346.25,-108 219.75,-108 219.75,-72 346.25,-72 346.25,-108"/>
<text text-anchor="middle" x="283" y="-86.3" font-family="Times,serif" font-size="14.00">Exploitables N = 80</text>
</g>
<!-- Q4&#45;&gt;Q6 -->
<g id="edge5" class="edge"><title>Q4&#45;&gt;Q6</title>
<path fill="none" stroke="black" d="M283,-143.716C283,-135.973 283,-126.789 283,-118.274"/>
<polygon fill="black" stroke="black" points="286.5,-118.003 283,-108.003 279.5,-118.003 286.5,-118.003"/>
</g>
<!-- Q7 -->
<g id="node7" class="node"><title>Q7</title>
<polygon fill="none" stroke="black" points="70.25,-36 -0.25,-36 -0.25,-0 70.25,-0 70.25,-36"/>
<text text-anchor="middle" x="35" y="-14.3" font-family="Times,serif" font-size="14.00">HTP N = </text>
</g>
<!-- Q5&#45;&gt;Q7 -->
<g id="edge6" class="edge"><title>Q5&#45;&gt;Q7</title>
<path fill="none" stroke="black" d="M93.7191,-71.6966C84.0846,-63.0503 72.2712,-52.4486 61.773,-43.027"/>
<polygon fill="black" stroke="black" points="63.8393,-40.1786 54.0591,-36.1043 59.1639,-45.3883 63.8393,-40.1786"/>
</g>
<!-- Q8 -->
<g id="node8" class="node"><title>Q8</title>
<polygon fill="none" stroke="black" points="175,-36 89,-36 89,-0 175,-0 175,-36"/>
<text text-anchor="middle" x="132" y="-14.3" font-family="Times,serif" font-size="14.00">CMCO N = </text>
</g>
<!-- Q5&#45;&gt;Q8 -->
<g id="edge7" class="edge"><title>Q5&#45;&gt;Q8</title>
<path fill="none" stroke="black" d="M117.697,-71.6966C119.813,-63.8979 122.362,-54.5085 124.718,-45.8292"/>
<polygon fill="black" stroke="black" points="128.116,-46.672 127.357,-36.1043 121.36,-44.8383 128.116,-46.672"/>
</g>
<!-- Q9 -->
<g id="node9" class="node"><title>Q9</title>
<polygon fill="none" stroke="black" points="300.25,-36 229.75,-36 229.75,-0 300.25,-0 300.25,-36"/>
<text text-anchor="middle" x="265" y="-14.3" font-family="Times,serif" font-size="14.00">HTP N = </text>
</g>
<!-- Q6&#45;&gt;Q9 -->
<g id="edge8" class="edge"><title>Q6&#45;&gt;Q9</title>
<path fill="none" stroke="black" d="M278.551,-71.6966C276.545,-63.8979 274.131,-54.5085 271.899,-45.8292"/>
<polygon fill="black" stroke="black" points="275.278,-44.9176 269.398,-36.1043 268.499,-46.6609 275.278,-44.9176"/>
</g>
<!-- Q10 -->
<g id="node10" class="node"><title>Q10</title>
<polygon fill="none" stroke="black" points="405,-36 319,-36 319,-0 405,-0 405,-36"/>
<text text-anchor="middle" x="362" y="-14.3" font-family="Times,serif" font-size="14.00">CMCO N = </text>
</g>
<!-- Q6&#45;&gt;Q10 -->
<g id="edge9" class="edge"><title>Q6&#45;&gt;Q10</title>
<path fill="none" stroke="black" d="M302.528,-71.6966C312.382,-62.9655 324.486,-52.2405 335.196,-42.7503"/>
<polygon fill="black" stroke="black" points="337.533,-45.3558 342.697,-36.1043 332.891,-40.1166 337.533,-45.3558"/>
</g>
</g>
</svg>
